<svg width="1386" height="621" viewBox="0 0 1386 621" fill="none" xmlns="http://www.w3.org/2000/svg">
<path fill-rule="evenodd" clip-rule="evenodd" d="M207.995 620.048C156.039 624.138 103.363 615.766 64.6388 580.995C15.959 537.286 -27.2626 480.04 -20.2498 415.107C-12.4044 342.465 31.2582 268.151 100.89 245.339C165.352 224.221 220.461 285.411 280.717 316.51C337.128 345.624 420.354 353.834 431.793 416.119C443.135 477.883 372.009 518.093 325.517 560.458C291.388 591.557 254.092 616.419 207.995 620.048Z" fill="#9DDFEB"/>
<path fill-rule="evenodd" clip-rule="evenodd" d="M1074.98 0.640414C1156.4 7.82876 1203.96 91.5936 1259.89 154.053C1312.98 213.345 1385.55 266.636 1386 347.971C1386.45 429.52 1322.41 492.737 1262.05 544.149C1208.73 589.56 1143.65 611.286 1074.98 612.877C1004.42 614.511 933.866 600.17 879.466 553.012C819.54 501.063 773.777 429.379 769.395 347.971C764.797 262.546 800.749 181.282 856.074 118.399C913.886 52.689 990.028 -6.86041 1074.98 0.640414Z" fill="#E7F6F8"/>
<path fill-rule="evenodd" clip-rule="evenodd" d="M991.899 33.4161C1069 27.3347 1147.17 39.7824 1204.63 91.4808C1276.87 156.47 1341.01 241.585 1330.61 338.13C1318.96 446.137 1254.17 556.631 1150.84 590.548C1055.18 621.948 973.401 530.967 883.982 484.729C800.271 441.441 676.766 429.234 659.792 336.625C642.96 244.792 748.508 185.006 817.501 122.016C868.148 75.7766 923.493 38.8117 991.899 33.4161Z" fill="#9DDFEB"/>
<path fill-rule="evenodd" clip-rule="evenodd" d="M293.804 164.227C287.48 159.91 282.375 153.91 280.856 146.062C276.481 123.447 308.959 119.977 318.023 129.554C327.088 139.131 333.981 167.737 326.681 171.839C323.77 173.475 316.589 173.303 308.728 171.07L320.972 199.752L295.86 206.481L293.804 164.227Z" fill="#784931"/>
<path fill-rule="evenodd" clip-rule="evenodd" d="M304.835 120.012C301.126 119.894 296.051 120.877 294.019 121.677C294.453 118.527 294.081 115.247 292.872 112.279C291.698 109.396 289.672 107.216 287.715 104.887C286.813 103.814 285.836 102.768 284.616 102.089C283.372 101.397 281.954 101.101 280.563 101.15C279.14 101.201 277.745 101.603 276.477 102.242C275.916 102.525 275.455 102.937 274.913 103.243C274.357 103.556 273.969 103.264 273.436 103.008C272.152 102.391 270.504 102.359 269.141 102.554C267.613 102.773 266.135 103.407 264.852 104.268C263.603 105.106 262.486 106.223 261.79 107.601C261.48 108.214 261.229 108.885 261.134 109.576C261.096 109.86 261.119 110.016 260.887 110.178C260.672 110.329 260.395 110.406 260.172 110.554C258.014 111.985 256.474 114.343 255.995 116.97C255.715 118.503 256.052 120.979 256.855 123.64C257.657 126.302 261.979 132.649 264.95 134.591C267.602 136.324 271.005 137.024 274.077 136.907C272.739 139.6 272.188 142.663 271.984 145.684C271.762 148.965 271.962 152.258 272.58 155.503C273.167 158.587 274.003 161.79 275.511 164.557C276.922 167.145 278.961 169.031 281.735 169.831C283.006 170.198 284.315 170.378 285.621 170.514C286.907 170.647 288.193 170.768 289.483 170.691C291.923 170.545 294.566 169.749 295.859 167.447C296.325 166.617 296.809 165.601 297.063 164.672C297.154 164.338 297.205 164.122 296.924 163.894C296.588 163.622 296.122 163.469 295.736 163.288C293.536 162.261 291.884 160.544 290.963 158.225C290.027 155.872 289.846 152.56 291.944 150.862C294.535 148.765 298.177 149.399 301.166 150.099C301.236 145.914 302.579 141.804 305.678 139.062C309.107 136.03 313.586 134.582 317.199 131.801C318.14 131.076 319.085 130.286 319.625 129.178C319.85 128.715 320.102 128.126 320.099 127.594C320.095 126.896 319.524 126.463 319.06 126.042C316.599 123.811 308.545 120.13 304.835 120.012Z" fill="#191847"/>
<path fill-rule="evenodd" clip-rule="evenodd" d="M301.587 293.922L340.859 431.205L369.513 532.39H390.412L359.963 293.922H301.587Z" fill="#191847"/>
<path fill-rule="evenodd" clip-rule="evenodd" d="M291.085 293.922C290.176 364.68 287.079 403.273 286.125 409.701C285.171 416.13 270.75 457.026 242.862 532.39H264.511C300.015 460.091 319.835 419.195 323.969 409.701C328.104 400.207 340.863 361.614 360.081 293.922H291.085Z" fill="#2F3676"/>
<path fill-rule="evenodd" clip-rule="evenodd" d="M240.927 551.98L242.01 529.233H264.758C275.544 536.815 289.626 542.954 307.003 547.648V551.98H265.841L251.759 549.814V551.98H240.927Z" fill="#191847"/>
<path fill-rule="evenodd" clip-rule="evenodd" d="M366.581 551.98L367.664 529.233H390.411C401.198 536.815 415.28 542.954 432.657 547.648V551.98H391.495L377.413 549.814V551.98H366.581Z" fill="#191847"/>
<path fill-rule="evenodd" clip-rule="evenodd" d="M389.882 265.324L426.875 286.812C436.456 288.332 444.569 290.624 451.212 293.69C452.829 294.874 454.898 297.398 448.724 297.575C442.549 297.752 436.062 298.215 435.434 300.383C434.807 302.552 438.774 304.648 437.36 307.633C436.416 309.624 430.544 305.501 419.742 295.266L384.244 284.812L389.882 265.324ZM241.991 279.28L261.367 278.679C248.807 326.042 242.017 351.117 240.997 353.902C238.704 360.169 244.327 369.39 246.766 374.366C239.497 377.916 239.866 365.712 230.702 370.356C222.336 374.594 216.114 381.956 206.087 376.275C204.855 375.576 203.436 372.832 206.558 370.536C214.336 364.817 225.488 354.896 226.931 351.709C228.9 347.364 233.92 323.221 241.991 279.28Z" fill="#B28B67"/>
<path fill-rule="evenodd" clip-rule="evenodd" d="M307.447 188.711L318.476 182.794C341.318 219.471 371.739 253.492 417.001 278.777L410.177 297.303C371.803 283.049 336.088 273.018 317.334 244.782C311.04 235.306 309.246 201.051 307.447 188.711Z" fill="#C5CFD6"/>
<path fill-rule="evenodd" clip-rule="evenodd" d="M286.826 306.907C320.988 304.532 347.385 299.878 366.019 292.944C368.328 292.084 368.003 288.043 366.421 285.54C341.783 246.568 323.504 211.994 318.359 182.814C315.477 184.958 309.985 186.171 301.885 186.454C285.944 220.271 282.263 256.495 286.826 306.907Z" fill="#323337"/>
<path fill-rule="evenodd" clip-rule="evenodd" d="M296.16 184.865L305.013 183.304C309.201 195.004 344.509 357.222 374.003 407.123L265.4 426.273C259.122 376.902 267.326 314.82 277.463 262.291C263.498 280.374 253.524 308.599 247.541 346.968L226.282 345.359C229.972 277.837 252.664 224.686 294.359 185.904C294.42 185.651 294.48 185.4 294.54 185.15L295.324 185.012C295.58 184.777 295.836 184.543 296.094 184.309L296.16 184.865Z" fill="#DDE3E9"/>
</svg>
