<svg width="171" height="174" viewBox="0 0 171 174" fill="none" xmlns="http://www.w3.org/2000/svg">
<path fill-rule="evenodd" clip-rule="evenodd" d="M77.8782 0.000777145C103.626 -0.124529 125.954 14.918 142.698 34.4779C160.355 55.1047 175.476 80.5961 169.553 107.094C163.606 133.694 139.002 150.282 114.256 161.709C90.13 172.849 62.2837 179.769 38.7053 167.513C15.757 155.585 6.94649 128.868 2.17388 103.449C-2.31304 79.5515 -0.514861 54.7271 13.8447 35.105C28.9688 14.4383 52.2689 0.125411 77.8782 0.000777145Z" fill="#E7F6F8"/>
<mask id="mask0" mask-type="alpha" maskUnits="userSpaceOnUse" x="0" y="0" width="171" height="174">
<path fill-rule="evenodd" clip-rule="evenodd" d="M77.8782 0.000777145C103.626 -0.124529 125.954 14.918 142.698 34.4779C160.355 55.1047 175.476 80.5961 169.553 107.094C163.606 133.694 139.002 150.282 114.256 161.709C90.13 172.849 62.2837 179.769 38.7053 167.513C15.757 155.585 6.94649 128.868 2.17388 103.449C-2.31304 79.5515 -0.514861 54.7271 13.8447 35.105C28.9688 14.4383 52.2689 0.125411 77.8782 0.000777145Z" fill="#E7F6F8"/>
</mask>
<g mask="url(#mask0)">
<path fill-rule="evenodd" clip-rule="evenodd" d="M86.3493 74.0346C91.1548 68.3939 94.4073 61.481 93.8638 53.735C92.2979 31.4166 61.2298 36.3263 55.1864 47.5908C49.143 58.8552 49.8612 87.4284 57.6717 89.4417C60.7865 90.2446 67.422 88.2778 74.1754 84.2072L69.9364 114.196H94.9659L86.3493 74.0346Z" fill="#57331F"/>
<path fill-rule="evenodd" clip-rule="evenodd" d="M72.924 56.1999C71.9659 69.546 69.4315 76.2191 65.3208 76.2191C59.1543 76.2191 53.9225 72.3044 51.2169 72.3044C49.2445 72.3044 49.6849 74.7726 50.9922 76.6026C52.0709 78.1124 57.3237 79.5677 57.3237 81.9084C57.3237 84.2492 53.1735 82.4383 53.1735 83.8265C53.1735 86.1228 52.4442 90.4403 56.4296 90.4403C60.4631 90.4403 72.0277 88.9704 74.0095 82.9841C75.2885 79.1207 76.1155 71.115 76.4905 58.967C76.7352 58.9379 76.9842 58.923 77.2367 58.923C80.6925 58.923 83.494 61.7245 83.494 65.1803C83.494 66.9347 82.7721 68.5205 81.609 69.6567C83.0569 71.7003 84.6795 73.8352 86.5389 76.0381C93.5242 71.8472 98.7077 59.5789 91.8784 47.7935C89.9908 42.02 85.7175 38.9361 80.6706 37.5042C76.5823 35.7941 72.3383 35.6012 68.7558 36.6264C61.733 37.2288 55.462 39.3702 53.6848 40.642C53.6848 47.2907 54.9731 49.2633 65.9767 49.0894C68.6805 50.5174 70.759 52.9762 72.924 56.1999Z" fill="#191847"/>
<path fill-rule="evenodd" clip-rule="evenodd" d="M5.7485 187.566L-23.7945 216.387C-32.3905 220.053 -39.4336 224.102 -44.924 228.533C-46.1587 230.022 -47.5028 232.876 -41.6936 231.599C-35.8845 230.322 -29.7166 229.24 -28.6248 231.129C-27.533 233.018 -30.7501 235.913 -28.7323 238.386C-27.3871 240.034 -22.863 234.791 -15.16 222.657L15.5608 204.544L5.7485 187.566ZM150.214 161.483L127.377 161.568C144.77 217.92 154.003 247.425 155.076 250.083C157.489 256.063 152.382 265.172 150.198 270.066C157.311 273.249 156.553 261.462 165.526 265.636C173.715 269.446 179.945 276.35 189.407 270.512C190.57 269.794 191.845 267.091 188.765 264.98C181.091 259.718 170.034 250.509 168.539 247.478C166.502 243.345 160.393 214.68 150.214 161.483Z" fill="#57331F"/>
<path fill-rule="evenodd" clip-rule="evenodd" d="M80.6265 96.7004L71.6085 95.1536C57.4023 145.371 -15.5885 179.601 -20.0694 198.374C-21.7126 205.258 -16.7579 208.738 -19.3173 210.835L-7.59555 219.416C-5.61058 217.1 -1.37468 221.336 7.47125 218.373C16.3172 215.41 80.6265 156.162 80.6265 96.7004Z" fill="#191847"/>
<path fill-rule="evenodd" clip-rule="evenodd" d="M65.4568 103.377C66.4966 169.861 28.0637 186.82 36.6244 213.49C43.6936 235.515 111.358 259.19 123.067 237.602C127.807 228.863 129.957 218.293 130.201 206.803C133.194 215.631 135.56 223.231 137.301 229.602C140.305 240.594 151.949 242.342 151.949 246.576L167.289 242.342C166.249 236.589 173.481 233.788 171.542 220.935C162.854 163.349 139.51 121.607 101.511 95.7084L101.118 90.0866C100.957 87.7883 98.9638 86.0554 96.6656 86.2161L68.576 88.1804C66.2777 88.3411 64.5448 90.3345 64.7055 92.6328L65.4568 103.377Z" fill="#2F3676"/>
</g>
</svg>
