<svg width="182" height="174" viewBox="0 0 182 174" fill="none" xmlns="http://www.w3.org/2000/svg">
<path fill-rule="evenodd" clip-rule="evenodd" d="M92.2678 0.572414C120.606 -0.366882 152.993 -2.75504 170.941 19.2674C189.026 41.4588 181.081 73.1561 174.068 100.945C167.339 127.612 158.025 155.808 133.422 167.951C108.636 180.185 79.8072 172.04 55.0899 159.667C30.8974 147.556 9.81823 128.903 2.98778 102.657C-4.09352 75.4478 1.36735 45.4135 19.8541 24.2753C37.4723 4.1302 65.5696 1.45735 92.2678 0.572414Z" fill="#E7F6F8"/>
<mask id="mask0" mask-type="alpha" maskUnits="userSpaceOnUse" x="0" y="0" width="182" height="174">
<path fill-rule="evenodd" clip-rule="evenodd" d="M92.2678 0.572414C120.606 -0.366882 152.993 -2.75504 170.941 19.2674C189.026 41.4588 181.081 73.1561 174.068 100.945C167.339 127.612 158.025 155.808 133.422 167.951C108.636 180.185 79.8072 172.04 55.0899 159.667C30.8974 147.556 9.81823 128.903 2.98778 102.657C-4.09352 75.4478 1.36735 45.4135 19.8541 24.2753C37.4723 4.1302 65.5696 1.45735 92.2678 0.572414Z" fill="#E7F6F8"/>
</mask>
<g mask="url(#mask0)">
<path fill-rule="evenodd" clip-rule="evenodd" d="M98.7377 78.4905C103.346 73.0817 106.464 66.4532 105.943 59.0258C104.442 37.6253 74.6515 42.3331 68.8567 53.1343C63.0618 63.9354 63.7504 91.3333 71.2397 93.2638C74.2264 94.0337 80.589 92.1478 87.0646 88.2446L83 117H107L98.7377 78.4905Z" fill="#B28B67"/>
<path fill-rule="evenodd" clip-rule="evenodd" d="M58.2243 38.1608C58.7213 36.4138 60.0581 34.9181 61.8596 34.4743C62.2965 34.3667 62.7476 34.3232 63.1972 34.3414C63.3584 34.3478 63.4036 34.3943 63.479 34.2815C63.5349 34.1979 63.5361 33.9937 63.5592 33.8954C63.6307 33.5899 63.7203 33.2882 63.8307 32.9944C64.2077 31.992 64.8411 31.1049 65.6048 30.3576C67.0331 28.9596 68.9631 27.9948 70.9682 27.8202C72.0656 27.7247 73.155 27.903 74.1925 28.26C74.7297 28.4448 75.2505 28.6749 75.7578 28.9293C75.9105 29.0059 76.4061 29.381 76.5593 29.3567C76.7286 29.3299 77.0689 28.9092 77.2065 28.8036C78.9079 27.4982 81.0089 26.985 83.1281 27.0003C85.5201 27.0183 87.8235 27.1379 89.8184 28.596C90.2407 28.9048 90.6429 29.2428 91.0259 29.5987C91.2275 29.786 91.4228 29.9804 91.6091 30.1829C91.7215 30.305 91.831 30.4299 91.9363 30.5582C92.1151 30.7759 92.0864 30.8474 92.3367 30.6955C93.2967 30.1122 94.4093 29.8394 95.5299 29.9771C96.1954 30.059 96.8428 30.2587 97.4575 30.5217C97.6668 30.6112 98.1513 30.9683 98.3744 30.9717C98.5957 30.9751 99.0734 30.6442 99.3013 30.56C100.533 30.1055 101.86 29.9935 103.154 30.2035C104.489 30.4202 105.8 30.9528 106.931 31.6888C107.475 32.0428 107.95 32.4351 108.331 32.9615C108.496 33.1888 108.644 33.4292 108.831 33.64C108.94 33.7634 109.156 33.89 109.215 34.0462C109.18 33.9526 110.675 33.3763 110.816 33.3395C111.568 33.1432 112.333 33.183 113.069 33.4252C114.453 33.8806 115.643 34.9019 116.621 35.9491C117.123 36.4869 117.563 37.0815 117.936 37.7149C118.115 38.0183 118.279 38.3303 118.428 38.649C118.501 38.8034 118.549 38.9966 118.644 39.1357C118.768 39.3149 118.85 39.3183 119.073 39.3965C120.206 39.7932 121.238 40.4649 122.025 41.3724C122.82 42.2906 123.336 43.4212 123.552 44.6119C123.565 44.6821 123.573 44.9727 123.614 45.0107C123.67 45.063 123.898 45.0398 123.984 45.05C124.282 45.085 124.579 45.137 124.871 45.2063C125.41 45.3338 125.934 45.5215 126.43 45.767C128.364 46.7239 129.747 48.5178 130.424 50.5364C131.135 52.6549 131.122 55.0819 130.273 57.1608C130.136 57.4966 129.973 57.8225 129.781 58.1309C129.664 58.3201 129.626 58.3206 129.702 58.5192C129.787 58.7401 129.943 58.9548 130.044 59.1707C130.374 59.8751 130.604 60.6223 130.75 61.3854C130.989 62.6372 131.108 63.9526 130.872 65.2139C130.762 65.7996 130.572 66.3721 130.281 66.8937C130.132 67.1597 129.958 67.412 129.762 67.6453C129.661 67.7665 129.553 67.8822 129.439 67.993C129.375 68.0563 129.29 68.1118 129.235 68.1825C129.101 68.3549 129.073 68.2132 129.142 68.4664C129.239 68.8204 129.458 69.1697 129.592 69.5143C129.731 69.8693 129.856 70.2292 129.97 70.5926C130.202 71.3285 130.398 72.0778 130.521 72.8399C130.756 74.3031 130.715 75.8622 130.023 77.2052C129.727 77.7796 129.302 78.2835 128.787 78.6755C128.535 78.8672 128.262 79.0325 127.976 79.1683C127.829 79.2382 127.641 79.2681 127.574 79.4104C127.501 79.5634 127.609 79.8673 127.633 80.0384C127.846 81.5266 127.953 83.0892 127.51 84.5477C127.103 85.891 126.206 87.077 125.041 87.8623C122.781 89.3855 119.735 89.2996 117.361 88.0802C116.742 87.7622 116.163 87.3676 115.647 86.902C114.331 88.6725 111.625 88.6165 109.703 88.112C107.308 87.4835 105.386 85.8183 104.279 83.6304C102.765 85.4733 99.588 84.8754 98.5382 82.8761C98.2812 82.3867 98.1288 81.8474 98.0538 81.3017C98.0143 81.0147 98.0395 80.7252 98.0098 80.4405C97.972 80.0778 97.7297 79.7253 97.5904 79.3743C97.3191 78.6913 97.1507 77.9858 97.1434 77.2491C97.1396 76.8644 97.1884 76.4896 97.2249 76.108C97.2578 75.7646 97.1626 75.4446 97.1085 75.1056C97.7227 75.2067 98.471 75.0411 99.0496 74.863C99.6175 74.6882 100.149 74.2279 100.55 73.8076C101.481 72.8314 102.049 71.5518 102.438 70.2782C103.292 67.483 102.942 64.1293 100.13 62.5952C98.8205 61.8806 94.8966 61.8829 93.3367 62.2361C91.6964 62.6075 89.8369 66.2267 89.7454 66.5669C89.6888 66.7774 89.7173 67.038 89.5239 67.1783C89.0988 67.4868 88.3978 66.9515 88.0843 66.6873C87.5432 66.2313 87.1573 65.6246 86.8231 65.0097C86.0948 63.67 85.5077 62.2333 85.093 60.7666C84.7733 59.6359 84.5689 58.4699 84.151 57.368C83.7351 56.2715 83.0796 55.2915 82.0604 54.6704C80.9516 53.9947 79.6807 53.6388 78.4635 53.2142C77.257 52.7933 76.0713 52.279 75.1361 51.386C74.9305 51.1897 74.7307 50.981 74.5652 50.7499C74.4345 50.5674 74.3054 50.218 74.1063 50.1023C73.7968 49.9223 73.3451 50.3904 73.0774 50.5604C71.757 51.399 70.6554 52.5686 69.7669 53.8463C68.8833 55.1171 68.1583 56.3398 67.5692 57.7588C67.1322 58.8112 66.8594 60.159 66.0908 61.0214C65.7477 61.4065 63.1972 61.6395 62.371 61.3033C61.5449 60.9671 60.619 60.0941 60.3417 59.547C60.0579 58.987 59.99 58.3718 60.1113 57.7588C60.1827 57.3981 60.3284 57.0612 60.4081 56.707C60.4752 56.4094 60.5361 56.1282 60.6809 55.8555C60.9554 55.339 61.4244 54.9677 61.9899 54.8124C61.4014 54.2698 60.9137 53.6206 60.5762 52.8949C60.2256 52.141 59.9284 51.2242 59.8441 50.3967C59.7755 49.7246 59.8813 49.0283 60.2492 48.4507C60.6352 47.8448 61.319 47.4495 61.9106 47.0716C61.0069 46.3646 60.2335 45.5047 59.5977 44.5528C58.3612 42.7015 57.5963 40.3679 58.2243 38.1608Z" fill="#191847"/>
<path fill-rule="evenodd" clip-rule="evenodd" d="M93.3051 100.332L84.6579 98.8492C69.7704 136.039 43.7783 169.831 6.68166 200.225L34.7137 234.282C71.806 191.005 94.6698 146.355 93.3051 100.332Z" fill="#191847"/>
<path fill-rule="evenodd" clip-rule="evenodd" d="M131 209H54C71.8391 165.625 80.7587 128.779 80.7587 98.4611L103.986 95.0003C122.24 124.359 127.395 160.505 131 209Z" fill="#DDE3E9"/>
<path fill-rule="evenodd" clip-rule="evenodd" d="M104.478 95.0168C104.475 95.0113 104.471 95.0058 104.468 95.0003H102.952C101.138 95.0628 98.3747 95.1754 94.6623 95.338L89.0498 111.377C88.4562 130.933 84.9892 170.342 78.6489 229.606H129.124C128.992 233.699 128.773 237.831 128.469 242H166C160.386 178.664 139.885 129.664 104.496 95.0003L104.478 95.0168V95.0168Z" fill="#2F3676"/>
</g>
</svg>
