<svg width="180" height="174" viewBox="0 0 180 174" fill="none" xmlns="http://www.w3.org/2000/svg">
<path fill-rule="evenodd" clip-rule="evenodd" d="M85.3508 0.0320279C109.257 0.702584 129.241 14.7006 145.406 32.3071C163.562 52.0816 184.001 75.1219 178.387 101.362C172.725 127.827 144.033 139.513 119.856 151.726C94.7687 164.398 67.608 181.643 41.8836 170.315C15.5893 158.736 5.20106 127.779 0.99252 99.3832C-2.7773 73.9473 4.26209 48.4244 20.9122 28.8151C36.9248 9.95658 60.6057 -0.662054 85.3508 0.0320279Z" fill="#E7F6F8"/>
<mask id="mask0" mask-type="alpha" maskUnits="userSpaceOnUse" x="0" y="0" width="180" height="174">
<path fill-rule="evenodd" clip-rule="evenodd" d="M85.3508 0.0320279C109.257 0.702584 129.241 14.7006 145.406 32.3071C163.562 52.0816 184.001 75.1219 178.387 101.362C172.725 127.827 144.033 139.513 119.856 151.726C94.7687 164.398 67.608 181.643 41.8836 170.315C15.5893 158.736 5.20106 127.779 0.99252 99.3832C-2.7773 73.9473 4.26209 48.4244 20.9122 28.8151C36.9248 9.95658 60.6057 -0.662054 85.3508 0.0320279Z" fill="#E7F6F8"/>
</mask>
<g mask="url(#mask0)">
<path fill-rule="evenodd" clip-rule="evenodd" d="M64.2381 51.2902C60.7911 63.9923 56.299 92.5438 60.8829 97.0225H89.8829C89.8858 96.971 89.8887 96.9197 89.8916 96.8685C100.64 95.679 109 86.5658 109 75.5V54.5C109 42.6259 99.3742 33 87.5001 33H85.5001C74.7168 33 65.7877 40.9385 64.2381 51.2902Z" fill="#191847"/>
<path fill-rule="evenodd" clip-rule="evenodd" d="M97.7378 71.4901C102.346 66.0814 105.464 59.4529 104.943 52.0255C103.442 30.625 73.6516 35.3328 67.8568 46.1339C62.062 56.9351 62.7505 84.333 70.2398 86.2635C73.2265 87.0333 79.5891 85.1475 86.0648 81.2443L82.0001 110H106L97.7378 71.4901Z" fill="#D4A181"/>
<path fill-rule="evenodd" clip-rule="evenodd" d="M91.2502 67.8748C90.1444 79.7528 90.5874 93.3173 93.8828 96.5371H122.883C124.499 68.4635 108.883 79.3349 108.883 52.9028C107.909 51.9515 106.989 51.01 106.079 50.1981L106.111 49.4207C101.09 39.1402 94.7187 34 86.9987 34C75.4187 34 71.7635 39.3883 68.6514 43.9631C70.9786 51.9482 80.0097 53.1322 88.0344 58.1095C88.9803 57.341 90.1864 56.8804 91.5001 56.8804C94.5377 56.8804 97.0001 59.3428 97.0001 62.3804C97.0001 65.418 94.5377 67.8804 91.5001 67.8804C91.4163 67.8804 91.333 67.8785 91.2502 67.8748Z" fill="#191847"/>
<path fill-rule="evenodd" clip-rule="evenodd" d="M28 153.311L-11.4828 147.925C-19.381 143.532 -26.647 140.558 -33.2807 139.003C-35.1475 138.948 -38.1172 139.627 -33.6931 143.315C-29.2691 147.003 -24.7803 151.083 -25.5685 153.051C-26.3567 155.02 -30.471 154.287 -31.1526 157.315C-31.607 159.333 -24.9297 159.661 -11.1208 158.299L20.9162 171L28 153.311ZM152.03 162.45L130.133 162.532C154.144 216.566 166.664 244.857 167.692 247.406C170.006 253.14 165.109 261.874 163.015 266.567C169.835 269.619 169.109 258.317 177.712 262.319C185.565 265.973 191.538 272.592 200.611 266.994C201.726 266.306 202.949 263.715 199.995 261.69C192.638 256.645 182.035 247.815 180.602 244.908C178.648 240.945 169.125 213.459 152.03 162.45Z" fill="#D4A181"/>
<path fill-rule="evenodd" clip-rule="evenodd" d="M92.0506 93L74.9057 94.1422C70.6832 132.343 47.6836 156.473 -3.81102 148.304L-10.6523 197.499C37.4772 203.719 79.687 184.45 88.3376 132.278C90.577 118.773 92.3452 104.718 92.0506 93Z" fill="#AFB9C5"/>
<path fill-rule="evenodd" clip-rule="evenodd" d="M100.509 88.0159L74.5324 93.9653C74.5324 138.644 60.3 167.15 53 200H123.156C124.145 211.351 124.752 223.018 125.068 235H177.598C165.695 171.664 140.57 122.664 102.224 88H100.523L100.509 88.0159Z" fill="#C5CFD6"/>
<path fill-rule="evenodd" clip-rule="evenodd" d="M112.088 136.259C113.896 164.101 112.832 185.347 108.898 200H123.156C121.199 177.514 117.744 156.267 112.088 136.259V136.259Z" fill="black" fill-opacity="0.1"/>
</g>
</svg>
